/* XPM */
static char *dummy[]={
"25 32 383 2",
"Qt c None",
"dU c #000000",
"bq c #000000",
".B c #000000",
".Q c #000000",
"#0 c #020101",
"cq c #000000",
"bd c #020101",
"a2 c #040101",
"cT c #000000",
"dI c #030202",
"a4 c #060405",
"#7 c #010101",
"c4 c #020102",
"b8 c #000000",
".8 c #020101",
"cA c #000000",
"aS c #010000",
".m c #010101",
".P c #000000",
"#P c #020102",
"#1 c #020101",
"cS c #020102",
"#r c #020202",
"bF c #000000",
"dy c #020101",
"aQ c #080606",
"ca c #030202",
"bC c #060405",
"cU c #040203",
"dh c #020202",
"dO c #090506",
"aM c #020202",
"cN c #080405",
"bt c #010000",
"bf c #0b0708",
"an c #030202",
"#k c #000000",
"bU c #130d0f",
".7 c #000000",
"bG c #080304",
"aR c #020101",
"dJ c #110a0c",
".# c #000000",
"dD c #120c0e",
"bn c #030000",
"ba c #030001",
"bM c #030202",
"b3 c #080506",
"cj c #090305",
"dV c #050304",
"#6 c #090305",
"bm c #20080f",
"by c #210e13",
"#q c #0c0708",
"a3 c #221619",
".l c #000000",
"af c #030202",
"cg c #070506",
"d1 c #040404",
"#E c #080607",
"cb c #1a090d",
".k c #000000",
".j c #0d0809",
"dd c #0e090a",
"c5 c #260c13",
"bZ c #221a1c",
"#p c #1a090e",
"cp c #040303",
".R c #0c0709",
"dp c #0a0607",
"c9 c #0e0a0b",
"dk c #030202",
"dq c #0b0809",
".A c #0b0708",
"#x c #140d0f",
"bB c #060203",
"#y c #110a0c",
"#z c #130a0c",
"di c #030202",
"dj c #040203",
"aN c #1d0f12",
"bT c #2e2024",
"dc c #010101",
"br c #1b1517",
"#d c #0d0809",
"#8 c #130c0e",
"aE c #080606",
"d2 c #13080b",
".a c #200d12",
".i c #31121a",
"cr c #130a0d",
"bV c #280912",
"c8 c #291218",
"aA c #060405",
"aB c #090607",
"az c #16070b",
"#2 c #0d0406",
"dT c #180a0e",
"#V c #1c0e12",
"aC c #27161a",
"#O c #2a1118",
"cw c #0c0809",
"#Z c #2f151c",
"b# c #260810",
"d0 c #2a181d",
"b7 c #100609",
".n c #190d11",
"d8 c #1a1315",
"co c #30171e",
"bj c #391720",
"dl c #411924",
"d. c #3a1b24",
"bS c #261c1f",
"be c #3c282d",
"dN c #41232b",
"#c c #26161b",
"bQ c #0d0306",
"bR c #391720",
"cB c #24171b",
"a0 c #4d1423",
"#l c #190b0f",
"dH c #3a1b23",
"#e c #3d121d",
"cH c #66293a",
"#F c #180a0e",
"cR c #19080c",
"#s c #1c0b10",
"dC c #451b27",
"#Q c #4d1c29",
"av c #1f1316",
"bg c #2d1a20",
"aF c #2f121a",
"aT c #2f2327",
"a5 c #2f2528",
"bu c #31171e",
"ao c #531828",
"ae c #572a36",
"cI c #66192e",
".C c #31161d",
"#D c #411f29",
".S c #4a1423",
"aw c #31131b",
"ay c #632234",
".Z c #3d111d",
".0 c #461422",
".Y c #602435",
".1 c #6e2136",
"bK c #3f3035",
"c3 c #13070a",
"cM c #461a26",
"cv c #713142",
".X c #79293e",
"aP c #5e2a39",
"d7 c #4d1b29",
"am c #352529",
".O c #241217",
"bP c #2e191f",
"cs c #4e1726",
"bE c #49343a",
"#j c #250e14",
"c# c #171012",
"du c #30181e",
"bH c #6d1d33",
"dE c #75293d",
"dg c #5a2c38",
"#5 c #2b171c",
"cV c #341a21",
"#3 c #381e25",
"#4 c #55353e",
"dW c #39151f",
".o c #531224",
"c2 c #4d1826",
".6 c #240810",
"b2 c #260911",
"dz c #501928",
"dP c #622535",
"#A c #761d35",
"b9 c #0d0607",
"cf c #2c2225",
"c. c #442830",
"d6 c #89374e",
"cO c #501927",
"dt c #1b0c10",
"dx c #551b2b",
"dK c #832d44",
"bw c #503940",
"cG c #741e35",
".N c #892b45",
"dr c #8c2843",
"cW c #9d3752",
".z c #461b27",
"cc c #8c203d",
"aZ c #3a141e",
"ci c #41101d",
"cz c #6b2739",
"c1 c #8a203d",
"bs c #1e191a",
"aL c #67172c",
".2 c #8f1838",
"aO c #931d3d",
"db c #543a41",
"#C c #9b163a",
"ce c #3e1e27",
"#o c #761e36",
"b6 c #861b38",
"ag c #55212f",
"dS c #5a2936",
"#9 c #961f3f",
"#Y c #a3193e",
"#t c #8c1435",
"cQ c #9f1c40",
"dB c #bb1542",
"dR c #bb2750",
"#J c #29191d",
"aW c #3c1520",
"aD c #3c272d",
"d3 c #491825",
"#I c #4c1a27",
"a8 c #531b2a",
".9 c #58202f",
"#K c #582734",
"bY c #5e4149",
".b c #5f2233",
"d# c #5f2f3c",
"bN c #602132",
"bo c #62001a",
"bb c #62061f",
"cC c #623944",
"bz c #640a22",
"da c #663945",
"b4 c #683a47",
"bc c #69192f",
".h c #6a2c3d",
"ab c #6b283b",
".y c #6c1d33",
"aa c #6e3746",
"al c #702f41",
"#b c #73243a",
"ck c #733f4d",
"bD c #74515a",
"aI c #774452",
"cx c #781a33",
"do c #79243b",
"bp c #7a2039",
"aj c #7b132f",
"#U c #7e2b42",
".g c #81344a",
".x c #821d38",
"cn c #831d39",
"de c #861e3a",
"ak c #862640",
"d4 c #862841",
"#w c #87233e",
"dX c #881635",
"dZ c #8c1d3b",
".c c #8d1e3c",
"#W c #8e1a39",
"ar c #8e5162",
"ct c #911537",
"a1 c #912542",
"#i c #921134",
"ch c #921436",
"cJ c #951a3c",
"as c #96344e",
"ai c #971539",
"#a c #981538",
".D c #982041",
"dG c #991539",
"ah c #991f40",
"c7 c #9a193c",
"#f c #9a1f40",
".p c #9e153a",
"#N c #a02244",
"bA c #a22547",
"cL c #a31c41",
"d5 c #a33c58",
"bJ c #a35369",
".W c #a51f43",
"bW c #a60e37",
".5 c #a6143b",
"c0 c #a71a40",
"bX c #a82145",
"#G c #aa274a",
"cZ c #ab1940",
"cF c #ac1d44",
"a# c #ac3254",
"c6 c #ad153e",
"aJ c #ae2148",
"#L c #af133d",
"b0 c #af1b43",
"ds c #af264b",
".3 c #b00836",
"bl c #b01640",
".d c #b02c4f",
"dQ c #b1153f",
"dM c #b11e46",
"bx c #b2234a",
"ax c #b23355",
"b. c #b30b38",
"au c #b3133e",
"bL c #b3254b",
"cu c #b41a44",
"b1 c #b5123e",
"dm c #b60e3c",
"#m c #b71f49",
"aq c #b81e48",
"cl c #b8667c",
".T c #b90e3c",
".M c #b91541",
".w c #b91a45",
"cY c #b93559",
"bI c #ba0b3b",
"#R c #ba103e",
"cK c #ba1340",
"#. c #ba1642",
"dY c #ba214b",
"aH c #bc1b46",
"aV c #bd1543",
".E c #be093a",
"b5 c #be2f56",
"ac c #bf1241",
"dA c #bf1442",
"aG c #c00739",
"bh c #c00b3c",
"bi c #c01d49",
"aU c #c10e3f",
"dF c #c10f3f",
"a6 c #c10f40",
"ap c #c20236",
".V c #c20b3c",
"## c #c20c3d",
"#n c #c20c3e",
"#H c #c21141",
"#T c #c21b49",
"ad c #c30639",
".q c #c30b3d",
"dv c #c3204c",
"bO c #c32550",
"cX c #c34769",
".e c #c35a77",
".J c #c40035",
".I c #c40135",
"#v c #c40539",
"dL c #c40e3f",
"cd c #c4224e",
".H c #c50136",
".4 c #c50237",
"#X c #c50338",
"#S c #c50438",
"#g c #c50539",
"cP c #c50c3e",
"df c #c51b49",
"bv c #c5486a",
".F c #c60036",
".G c #c60136",
"#u c #c60237",
"at c #c60338",
"a. c #c6083b",
"aY c #c61344",
".f c #c6607b",
".r c #c70036",
".U c #c70136",
"#h c #c70137",
".s c #c70237",
"aK c #c70339",
"cy c #c70439",
"#M c #c7063a",
"#B c #c7063b",
"a7 c #c70e40",
".K c #c8053a",
".u c #c8063b",
"dn c #c8093d",
".v c #c80b3e",
".t c #c9093d",
".L c #c90d40",
"dw c #c90e41",
"cm c #ca345c",
"cE c #d03861",
"cD c #d05f7e",
"aX c #d23560",
"bk c #d23661",
"a9 c #d33862",
"QtQtQtQtQtQtQt.#.a.b.c.d.e.f.g.h.i.j.k.lQtQtQtQtQt",
"QtQtQtQtQt.m.n.o.p.q.r.r.s.t.u.v.w.x.y.z.AQtQtQtQt",
"QtQtQtQt.B.C.D.E.F.r.r.G.H.I.J.H.F.K.L.M.N.O.PQtQt",
"QtQt.Q.R.S.T.r.r.U.V.W.X.Y.Z.0.1.2.3.4.r.U.5.6.7Qt",
"QtQt.8.9#..F.r###a#b#c.BQtQtQtQt#d#e#f#g.r#h#i#j#k",
"QtQt#l#m#h.F#n#o#p#q.mQtQtQtQtQtQt#r#s#t#u.r#v#w#x",
"#y#z#A.r#B#C#D#EQtQtQtQtQtQtQtQtQtQtQt#F#G#u.r#H#I",
"#J#K#L#M#N#OQtQtQtQtQtQtQtQtQtQtQtQtQt#P#Q#R#S#T#U",
"#V#W#X#Y#Z#0QtQtQtQtQt#1#2#3#4#5#6#7QtQt#8#9a.a#aa",
"abacadaeQtQtQtQtQtQtafagahaiajakalamanQtQtaoapaqar",
"asatauavQtQtQtQtQtQtawaxayazaAaBaCaDaEQtQtaFaGaHaI",
"aJaKaLaMQtQtQtQtQtaNaOaPaQQtQtQt.BaRaSQtQtaTaUaVaW",
"aXaYaZQtQtQtQtQtaSa0a1a2QtQtQtQtQtQta3a4Qta5a6a7a8",
"a9b.b#QtQtQtQtQtbabbbcbdQtQtQtQtQtQtbebfQtbgbhbibj",
"bkblbmQtQtQtQtQtbnbobpbdQtQtQtQtbqbrbsbtQtbubhbvbw",
"bkbxbyQtQtQtQtQtbabzbAbBQtQtQtQtbCbDbEbFbGbHbIbJbK",
"bkbLbyQtQtQtQtQtbMbNbObPQt.QbQbRbSbTbUQtbVbWbXbYbZ",
"b0b1b2QtQtQtQtQtb3b4b5b6b7b8b9c.c#Qtcacbcccdcecfcg",
"ch.LciQtQtQtQtQtcjckclcmcncocpQtcqcrcsctcucvcwQtQt",
"cxcyczQtQtQtQtQtcAcBcCcDcEcFcGcHcIcJcKcLcMcNQtQtQt",
"cOcPcQcRcSQtQtQtQtcTcUcVcWcXcYcZc0c1c2c3c4QtQtQtQt",
"c5c6atc7c8QtQtQtQtQtQtQtc9d.d#dadbdcQtQtQtQtQtQtQt",
"ddde.KdfdgdhQtQtQtQtQtQtQtbqdidjdkQtQtQtQtQtQtQtQt",
".QdldmdndodpQtQtQtQtQtQtQtQtQtQtQtQtQtQtQtQtQtQtQt",
"Qtdqdr.sdsdtQtQtQtQtQtQtQtQtQtQtQtQtQtQtQtQtQtQtQt",
"QtQtdudvdwdxQtQtQtQtQtQtQtQtQtQtQtQtQtQtQtQtQtQtQt",
"QtQtdydzdAdBdC#rQtQtQtQtQtQtQtQtQtQtQtQtQtQtQtQtQt",
"QtQtQtdDdEdFdGdHdIQtQtQtQtQtQtQtQtQtQtQtQtQtQtQtQt",
"QtQtQtQtdJdKdLdMdNQtQtQtQtQtQtQtQtQtQtQtQtQtQtQtQt",
"QtQtQtQtQtdOdPdQdRdSdTdUQtQtQtQtQtQtQtQtQtQtQtQtQt",
"QtQtQtQtQtQtdVdWdXdYdZd0d1QtQtQtQtQtQtQtQtQtQtQtQt",
"QtQtQtQtQtQtQt.#d2d3d4d5d6d7d8QtQtQtQtQtQtQtQtQtQt"};
